HIERARCHY
ROOT Hips
{
	OFFSET 0.00000 0.00000 0.00000
	CHANNELS 6 Xposition Yposition Zposition Zrotation Yrotation Xrotation 
	JOINT LHipJoint
	{
		OFFSET 0 0 0
		CHANNELS 3 Zrotation Yrotation Xrotation
		JOINT LeftUpLeg
		{
			OFFSET 1.58895 -1.83665 0.71753
			CHANNELS 3 Zrotation Yrotation Xrotation
			JOINT LeftLeg
			{
				OFFSET 2.50528 -6.88321 0.00000
				CHANNELS 3 Zrotation Yrotation Xrotation
				JOINT LeftFoot
				{
					OFFSET 2.63244 -7.23257 0.00000
					CHANNELS 3 Zrotation Yrotation Xrotation
					JOINT LeftToeBase
					{
						OFFSET 0.23691 -0.65090 1.72750
						CHANNELS 3 Zrotation Yrotation Xrotation
						End Site
						{
							OFFSET 0.00000 -0.00000 0.92561
						}
					}
				}
			}
		}
	}
	JOINT RHipJoint
	{
		OFFSET 0 0 0
		CHANNELS 3 Zrotation Yrotation Xrotation
		JOINT RightUpLeg
		{
			OFFSET -1.51435 -1.83665 0.71753
			CHANNELS 3 Zrotation Yrotation Xrotation
			JOINT RightLeg
			{
				OFFSET -2.54551 -6.99375 0.00000
				CHANNELS 3 Zrotation Yrotation Xrotation
				JOINT RightFoot
				{
					OFFSET -2.66027 -7.30903 0.00000
					CHANNELS 3 Zrotation Yrotation Xrotation
					JOINT RightToeBase
					{
						OFFSET -0.22981 -0.63138 2.03959
						CHANNELS 3 Zrotation Yrotation Xrotation
						End Site
						{
							OFFSET -0.00000 -0.00000 1.07060
						}
					}
				}
			}
		}
	}
	JOINT LowerBack
	{
		OFFSET 0 0 0
		CHANNELS 3 Zrotation Yrotation Xrotation
		JOINT Spine
		{
			OFFSET -0.02651 1.86275 -0.11152
			CHANNELS 3 Zrotation Yrotation Xrotation
			JOINT Spine1
			{
				OFFSET 0.01019 1.86224 0.04087
				CHANNELS 3 Zrotation Yrotation Xrotation
				JOINT Neck
				{
					OFFSET 0 0 0
					CHANNELS 3 Zrotation Yrotation Xrotation
					JOINT Neck1
					{
						OFFSET -0.01926 1.80512 0.08867
						CHANNELS 3 Zrotation Yrotation Xrotation
						JOINT Head
						{
							OFFSET 0.05516 1.76451 -0.38475
							CHANNELS 3 Zrotation Yrotation Xrotation
							End Site
							{
								OFFSET 0.01592 1.82587 -0.14001
							}
						}
					}
				}
				JOINT LeftShoulder
				{
					OFFSET 0 0 0
					CHANNELS 3 Zrotation Yrotation Xrotation
					JOINT LeftArm
					{
						OFFSET 3.47116 1.51376 0.14491
						CHANNELS 3 Zrotation Yrotation Xrotation
						JOINT LeftForeArm
						{
							OFFSET 4.78095 -0.00000 0.00000
							CHANNELS 3 Zrotation Yrotation Xrotation
							JOINT LeftHand
							{
								OFFSET 3.58615 -0.00000 -0.00000
								CHANNELS 3 Zrotation Yrotation Xrotation
								JOINT LeftFingerBase
								{
									OFFSET 0 0 0
									CHANNELS 3 Zrotation Yrotation Xrotation
									JOINT LeftHandIndex1
									{
										OFFSET 0.65981 -0.00000 0.00000
										CHANNELS 3 Zrotation Yrotation Xrotation
										End Site
										{
											OFFSET 0.53196 -0.00000 0.00000
										}
									}
								}
								JOINT LThumb
								{
									OFFSET 0 0 0
									CHANNELS 3 Zrotation Yrotation Xrotation
									End Site
									{
										OFFSET 0.54008 -0.00000 0.54008
									}
								}
							}
						}
					}
				}
				JOINT RightShoulder
				{
					OFFSET 0 0 0
					CHANNELS 3 Zrotation Yrotation Xrotation
					JOINT RightArm
					{
						OFFSET -3.31725 1.61216 0.35156
						CHANNELS 3 Zrotation Yrotation Xrotation
						JOINT RightForeArm
						{
							OFFSET -4.48913 -0.00000 0.00000
							CHANNELS 3 Zrotation Yrotation Xrotation
							JOINT RightHand
							{
								OFFSET -3.70510 -0.00000 0.00000
								CHANNELS 3 Zrotation Yrotation Xrotation
								JOINT RightFingerBase
								{
									OFFSET 0 0 0
									CHANNELS 3 Zrotation Yrotation Xrotation
									JOINT RightHandIndex1
									{
										OFFSET -0.44914 -0.00000 0.00000
										CHANNELS 3 Zrotation Yrotation Xrotation
										End Site
										{
											OFFSET -0.36211 -0.00000 0.00000
										}
									}
								}
								JOINT RThumb
								{
									OFFSET 0 0 0
									CHANNELS 3 Zrotation Yrotation Xrotation
									End Site
									{
										OFFSET -0.36763 -0.00000 0.36763
									}
								}
							}
						}
					}
				}
			}
		}
	}
}
MOTION
Frames: 5
Frame Time: .0083333
-0.2700 18.7551 5.8279 -1.4708 9.5950 15.1500 0.0000 0.0000 0.0000 -9.4584 -16.6060 -24.9658 2.8171 10.3929 30.2587 0.9764 -0.9061 -18.3955 8.5281 -16.4943 -54.4433 0.0000 0.0000 0.0000 15.2574 -0.9518 -11.0419 -0.1759 -2.7013 7.4482 -1.2663 -8.5052 -25.8915 -0.2344 3.1161 -8.6023 0.3779 -1.5144 21.4776 7.4091 -1.1742 3.6700 8.3141 -0.4662 -7.8379 -5.5457 -12.3994 2.8015 22.3657 -18.1914 6.5254 6.9941 -8.7103 4.0972 0.0000 0.0000 0.0000 -86.8395 -10.7941 50.8660 118.4644 -56.7054 -84.3782 -0.0000 -0.0000 2.1861 8.1055 -12.6602 -1.7878 -7.1250 0.0000 -0.0000 -13.2357 17.3952 8.9157 0.0000 0.0000 0.0000 51.2688 63.0207 52.7642 -56.5514 55.3187 -31.4879 0.0000 0.0000 5.6571 -10.4861 -44.3156 7.3677 7.1250 -0.0000 -0.0000 42.3594 -70.6473 -27.4638
-0.2699 18.7566 5.8341 -1.4745 9.5599 15.2779 0.0000 0.0000 0.0000 -9.4279 -16.5834 -25.0969 2.8159 10.3908 30.2519 0.9746 -0.8613 -18.3911 8.5546 -16.5124 -54.5367 0.0000 0.0000 0.0000 15.2627 -0.8801 -11.1305 -0.1737 -2.6847 7.4022 -1.2607 -8.5476 -25.8804 -0.2356 3.1239 -8.6239 0.4737 -1.5104 21.4826 7.3592 -1.1509 3.6554 8.1948 -0.4573 -7.8634 -5.6323 -12.4920 2.8219 21.9765 -18.0318 5.1651 6.9171 -8.7393 3.6361 0.0000 -0.0000 0.0000 -86.8382 -10.6618 50.8285 119.2878 -56.4967 -85.0657 -0.0000 -0.0000 2.0341 7.8935 -12.2918 -1.6907 -7.1250 0.0000 -0.0000 -13.4000 17.7667 8.9200 0.0000 -0.0000 0.0000 50.9042 62.2743 51.4014 -60.6407 56.4782 -34.8747 0.0000 0.0000 5.6242 -9.0429 -44.3469 6.3479 7.1250 -0.0000 -0.0000 43.8427 -70.1831 -28.1184
-0.2700 18.7578 5.8410 -1.4728 9.5473 15.3950 0.0000 0.0000 0.0000 -9.4041 -16.5505 -25.2223 2.8152 10.3897 30.2480 0.9727 -0.8624 -18.3730 8.5791 -16.5291 -54.6229 0.0000 0.0000 0.0000 15.2707 -0.8446 -11.1837 -0.1700 -2.6563 7.3232 -1.2673 -8.4894 -25.8881 -0.2243 3.0484 -8.4136 0.6519 -1.5288 21.4229 7.2508 -1.1493 3.6792 7.9598 -0.4645 -7.8118 -5.5956 -12.5131 2.6220 21.5058 -17.8149 3.9813 6.7893 -8.7093 3.2411 0.0000 -0.0000 0.0000 -86.7203 -10.5728 50.7619 120.2723 -56.2369 -85.8854 -0.0000 -0.0000 1.7416 7.4749 -11.5990 -1.5111 -7.1250 0.0000 -0.0000 -13.7276 18.4637 8.9331 0.0000 -0.0000 0.0000 50.7500 61.5163 49.9927 -65.5021 57.6062 -38.9547 0.0000 0.0000 5.3934 -7.3219 -44.4443 5.1411 7.1250 -0.0000 -0.0000 45.6992 -69.6759 -28.9877
-0.2701 18.7580 5.8480 -1.4526 9.5508 15.5445 0.0000 0.0000 0.0000 -9.3880 -16.5582 -25.3718 2.8131 10.3862 30.2367 0.9700 -0.8545 -18.3490 8.5950 -16.5399 -54.6785 0.0000 0.0000 0.0000 15.2624 -0.8247 -11.2629 -0.1656 -2.6215 7.2268 -1.2703 -8.4630 -25.8910 -0.2139 2.9776 -8.2164 0.7960 -1.5391 21.3276 7.1519 -1.1432 3.6576 7.7553 -0.4670 -7.7911 -5.5440 -12.4381 2.2824 20.9251 -17.5281 3.1179 6.6202 -8.6128 2.9450 -0.0000 0.0000 0.0000 -86.6095 -10.4263 50.7062 121.0211 -56.0317 -86.5071 -0.0000 -0.0000 1.7010 7.2746 -11.1997 -1.4203 -7.1250 0.0000 -0.0000 -13.8910 18.8624 8.9191 -0.0000 0.0000 0.0000 51.0703 60.6523 48.9173 -71.1299 58.6108 -43.7342 0.0000 0.0000 4.8912 -6.1486 -44.6581 4.3301 7.1250 -0.0000 -0.0000 47.2454 -69.4290 -29.8721
-0.2703 18.7568 5.8537 -1.4560 9.5788 15.6751 0.0000 0.0000 0.0000 -9.3374 -16.6159 -25.4850 2.8092 10.3795 30.2147 0.9676 -0.8396 -18.3301 8.5881 -16.5352 -54.6545 0.0000 0.0000 0.0000 15.2830 -0.8173 -11.3541 -0.1632 -2.6029 7.1750 -1.2810 -8.4147 -25.9368 -0.1953 2.8459 -7.8500 0.9198 -1.5568 21.3460 7.0849 -1.1374 3.5543 7.6114 -0.4636 -7.9200 -5.3808 -12.2241 1.8820 20.1391 -17.0928 2.5380 6.3780 -8.4197 2.6957 -0.0000 0.0000 0.0000 -86.5307 -10.1672 50.6359 121.5158 -55.8923 -86.9171 -0.0000 -0.0000 1.8473 7.2986 -11.1061 -1.4133 -7.1250 0.0000 -0.0000 -13.8805 18.9530 8.8831 -0.0000 0.0000 0.0000 51.4870 59.6841 47.9006 -77.5528 59.4064 -49.2419 0.0000 0.0000 4.2205 -4.6789 -44.7846 3.2997 7.1250 -0.0000 -0.0000 48.8606 -69.0282 -30.6529
